<?xml version="1.0" encoding="utf-8"?>
<!-- Generator: Adobe Illustrator 16.0.0, SVG Export Plug-In . SVG Version: 6.00 Build 0)  -->
<!DOCTYPE svg PUBLIC "-//W3C//DTD SVG 1.1//EN" "http://www.w3.org/Graphics/SVG/1.1/DTD/svg11.dtd">
<svg version="1.1" xmlns="http://www.w3.org/2000/svg" xmlns:xlink="http://www.w3.org/1999/xlink" x="0px" y="0px"
	 width="841.89px" height="595.276px" viewBox="0 0 841.89 595.276" enable-background="new 0 0 841.89 595.276"
	 xml:space="preserve">
<g id="Layer_1">
</g>
<g id="Layer_2">
</g>
<g id="Layer_5">
</g>
<g id="Layer_9">
</g>
<g id="Layer_7">
</g>
<g id="Layer_3">
	<g>
		<g>
			<path fill="#190101" d="M272.591,237.14c-2.375,0-4.411-0.764-6.108-2.291c-1.696-1.526-2.545-3.534-2.545-6.022
				c0-2.375,0.849-4.296,2.545-5.768c1.697-1.468,3.733-2.205,6.108-2.205h77.189c2.375,0,4.381,0.764,6.022,2.29
				c1.638,1.528,2.459,3.478,2.459,5.854c0,2.489-0.821,4.468-2.459,5.937c-1.641,1.472-3.647,2.206-6.022,2.206H272.591z
				 M311.1,339.605c-2.712,0-4.893-0.818-6.531-2.46c-1.641-1.637-2.459-3.702-2.459-6.191V229.336h18.151v101.617
				c0,2.49-0.878,4.554-2.631,6.191C315.878,338.787,313.701,339.605,311.1,339.605z"/>
			<path fill="#190101" d="M373.866,339.605c-2.487,0-4.523-0.818-6.105-2.46c-1.585-1.637-2.375-3.702-2.375-6.191v-71.93
				c0-2.486,0.791-4.551,2.375-6.192c1.583-1.638,3.619-2.46,6.105-2.46c2.377,0,4.383,0.823,6.024,2.46
				c1.638,1.641,2.458,3.706,2.458,6.192v19.001l-1.696-7.295c0.904-3.165,2.292-6.107,4.158-8.821
				c1.864-2.714,4.098-5.089,6.701-7.125c2.601-2.036,5.513-3.618,8.736-4.75c3.224-1.128,6.586-1.696,10.094-1.696
				c2.94,0,5.485,0.792,7.632,2.375c2.15,1.584,3.226,3.562,3.226,5.937c0,3.054-0.792,5.288-2.375,6.701
				c-1.585,1.416-3.337,2.12-5.259,2.12c-1.697,0-3.337-0.365-4.92-1.102c-1.585-0.734-3.451-1.103-5.599-1.103
				c-2.375,0-4.809,0.623-7.293,1.866c-2.489,1.246-4.75,3.083-6.786,5.514c-2.036,2.433-3.646,5.289-4.834,8.567
				c-1.188,3.282-1.783,6.955-1.783,11.027v40.714c0,2.49-0.82,4.554-2.458,6.191C378.249,338.787,376.243,339.605,373.866,339.605z
				"/>
			<path fill="#190101" d="M502.628,249.694c2.487,0,4.522,0.821,6.107,2.46c1.583,1.64,2.375,3.705,2.375,6.191v72.948
				c0,9.951-1.896,18.038-5.683,24.259c-3.791,6.219-8.88,10.772-15.27,13.657c-6.391,2.884-13.601,4.326-21.628,4.326
				c-4.072,0-8.144-0.368-12.216-1.104c-4.069-0.736-7.409-1.78-10.01-3.137c-2.715-1.246-4.637-2.773-5.766-4.581
				c-1.132-1.811-1.302-3.79-0.509-5.938c0.79-2.714,2.147-4.554,4.072-5.514c1.92-0.961,3.902-1.046,5.936-0.253
				c1.922,0.789,4.467,1.808,7.635,3.053c3.166,1.244,6.787,1.866,10.858,1.866c5.539,0,10.233-0.906,14.08-2.714
				c3.844-1.811,6.756-4.638,8.736-8.482c1.978-3.846,2.968-8.821,2.968-14.929v-11.707l2.714,4.072
				c-1.811,3.732-4.186,6.844-7.124,9.331c-2.942,2.488-6.421,4.411-10.433,5.768c-4.016,1.357-8.455,2.035-13.317,2.035
				c-6.222,0-11.567-1.385-16.032-4.156c-4.469-2.769-7.888-6.616-10.263-11.535c-2.375-4.92-3.563-10.545-3.563-16.88v-50.384
				c0-2.486,0.79-4.551,2.375-6.191c1.583-1.639,3.619-2.46,6.108-2.46c2.373,0,4.381,0.821,6.022,2.46
				c1.636,1.64,2.459,3.705,2.459,6.191v45.804c0,7.464,1.639,12.922,4.92,16.372c3.28,3.45,8.144,5.174,14.589,5.174
				c4.297,0,8.03-0.905,11.198-2.715c3.166-1.808,5.655-4.326,7.463-7.549c1.811-3.224,2.717-6.982,2.717-11.282v-45.804
				c0-2.486,0.818-4.551,2.459-6.191C498.245,250.515,500.252,249.694,502.628,249.694z"/>
			<path fill="#190101" d="M544.093,295.667c-2.375,0-4.386-0.818-6.024-2.459c-1.638-1.638-2.459-3.648-2.459-6.023
				c0-2.485,0.821-4.495,2.459-6.021c1.639-1.528,3.649-2.29,6.024-2.29h31.892c2.375,0,4.412,0.821,6.108,2.459
				c1.697,1.641,2.545,3.706,2.545,6.192c0,2.264-0.848,4.186-2.545,5.768c-1.696,1.585-3.732,2.375-6.108,2.375H544.093z"/>
			<path fill="#190101" d="M729.95,280.23c0,8.596-1.416,16.599-4.242,24.005c-2.829,7.409-6.814,13.884-11.96,19.424
				c-5.148,5.543-11.226,9.869-18.238,12.978c-7.014,3.109-14.702,4.665-23.072,4.665c-8.255,0-15.89-1.556-22.902-4.665
				c-7.014-3.109-13.092-7.435-18.237-12.978c-5.148-5.54-9.104-12.015-11.876-19.424c-2.771-7.406-4.153-15.409-4.153-24.005
				c0-8.594,1.383-16.596,4.153-24.004c2.772-7.407,6.728-13.882,11.876-19.425c5.146-5.54,11.223-9.866,18.237-12.978
				c7.012-3.109,14.646-4.665,22.902-4.665c8.37,0,16.058,1.556,23.072,4.665c7.012,3.112,13.09,7.438,18.238,12.978
				c5.146,5.543,9.131,12.019,11.96,19.425C728.534,263.634,729.95,271.636,729.95,280.23z M711.628,280.23
				c0-8.369-1.671-15.889-5.006-22.563c-3.337-6.671-7.946-11.93-13.826-15.777c-5.88-3.843-12.667-5.768-20.357-5.768
				c-7.579,0-14.31,1.925-20.188,5.768c-5.882,3.847-10.463,9.076-13.74,15.692c-3.282,6.616-4.92,14.166-4.92,22.648
				c0,8.371,1.638,15.891,4.92,22.563c3.277,6.674,7.858,11.933,13.74,15.777c5.878,3.846,12.609,5.767,20.188,5.767
				c7.691,0,14.477-1.921,20.357-5.767c5.88-3.844,10.489-9.103,13.826-15.777C709.957,296.121,711.628,288.601,711.628,280.23z"/>
			<path fill="#190101" d="M794.918,248.337c8.03,0,14.251,1.67,18.663,5.004c4.411,3.338,7.491,7.804,9.245,13.402
				c1.752,5.599,2.631,11.849,2.631,18.746v45.465c0,2.49-0.823,4.554-2.461,6.191c-1.641,1.642-3.647,2.46-6.022,2.46
				c-2.489,0-4.525-0.818-6.108-2.46c-1.585-1.637-2.375-3.702-2.375-6.191v-45.294c0-4.072-0.567-7.72-1.697-10.943
				c-1.132-3.223-3.082-5.824-5.852-7.804c-2.773-1.978-6.645-2.968-11.621-2.968c-4.639,0-8.71,0.991-12.213,2.968
				c-3.507,1.98-6.252,4.581-8.227,7.804c-1.983,3.223-2.97,6.871-2.97,10.943v45.294c0,2.49-0.821,4.554-2.459,6.191
				c-1.641,1.642-3.649,2.46-6.024,2.46c-2.487,0-4.523-0.818-6.105-2.46c-1.585-1.637-2.375-3.702-2.375-6.191v-71.93
				c0-2.486,0.791-4.551,2.375-6.192c1.583-1.638,3.619-2.46,6.105-2.46c2.375,0,4.383,0.823,6.024,2.46
				c1.638,1.641,2.459,3.706,2.459,6.192v9.5l-3.054,1.696c0.79-2.486,2.175-5.004,4.156-7.549c1.978-2.544,4.383-4.919,7.211-7.125
				c2.824-2.206,5.992-3.958,9.499-5.258C787.228,248.988,790.96,248.337,794.918,248.337z"/>
		</g>
		<g>
			<path opacity="0.1" fill="#231F20" d="M112.516,398.214c53.011,0.611,95.948,4.664,95.896,9.057
				c-0.061,4.386-43.078,7.47-96.094,6.85c-53.014-0.609-95.929-4.667-95.89-9.046C16.492,400.656,59.51,397.614,112.516,398.214z"
				/>
			<path fill="#CF0A2C" d="M143.606,186.354c-3.538-1.215-7.389,0.669-8.602,4.206c-1.216,3.536,0.667,7.389,4.204,8.604
				c33.293,11.43,55.661,42.776,55.661,78.001c0,31.05-17.254,58.143-42.676,72.203c-4.025-0.046-7.969-0.716-11.832-2.023
				c-4.009-1.354-7.563-3.47-10.666-6.348c-3.105-2.877-5.587-6.518-7.449-10.919c-1.862-4.401-2.794-9.591-2.794-15.574v-46.283
				c0-1.692,0.593-3.103,1.778-4.231c1.185-1.126,2.566-1.692,4.148-1.692h20.82c1.58,0,2.821-0.592,3.726-1.778
				c0.902-1.184,1.355-2.565,1.355-4.146c0-1.58-0.453-2.962-1.355-4.148c-0.904-1.185-2.146-1.778-3.726-1.778h-20.82
				c-1.583,0-2.963-0.592-4.148-1.776c-1.186-1.186-1.778-2.567-1.778-4.148v-57.52c0-1.917-0.704-3.385-2.115-4.4
				c-1.413-1.017-3.021-1.524-4.825-1.524c-1.809,0-3.417,0.508-4.825,1.524c-1.413,1.016-2.115,2.483-2.115,4.4v57.52
				c0,1.582-0.593,2.963-1.778,4.148c-1.185,1.185-2.568,1.776-4.146,1.776h-5.757c-1.583,0-2.794,0.593-3.64,1.778
				c-0.846,1.186-1.271,2.568-1.271,4.148c0,1.581,0.425,2.962,1.271,4.146c0.846,1.186,2.057,1.778,3.64,1.778h5.757
				c1.578,0,2.961,0.566,4.146,1.692c1.186,1.129,1.778,2.54,1.778,4.231v46.283c0,8.239,1.38,15.405,4.146,21.5
				c2.764,6.094,6.347,11.172,10.751,15.235c2.831,2.614,5.922,4.791,9.269,6.541c-5.587,1.199-11.381,1.836-17.322,1.836
				c-45.462,0-82.446-36.987-82.446-82.451c0-35.094,22.258-66.403,55.389-77.909c3.533-1.227,5.401-5.085,4.174-8.618
				c-1.225-3.533-5.078-5.402-8.618-4.175c-38.572,13.396-64.488,49.845-64.488,90.702c0,52.931,43.06,95.994,95.989,95.994
				c52.933,0,95.994-43.063,95.994-95.994C208.413,236.157,182.371,199.662,143.606,186.354z"/>
		</g>
	</g>
</g>
<g id="Layer_4">
</g>
<g id="Layer_8">
</g>
<g id="Layer_6">
</g>
</svg>
